<?xml version="1.0" encoding="UTF-8" standalone="no"?>
<svg width="18px" height="18px" viewBox="0 0 48 48" version="1.1" xmlns="http://www.w3.org/2000/svg" xmlns:xlink="http://www.w3.org/1999/xlink">
    <g stroke="none" stroke-width="1" fill="none" fill-rule="evenodd">
        <path d="M44.5,20H24v8.5h11.7C34.6,33.9,30.1,37,24,37c-7.2,0-13-5.8-13-13s5.8-13,13-13c3.1,0,5.9,1.1,8.1,2.9l6.4-6.4C34.6,4.5,29.6,2,24,2C11.8,2,2,11.8,2,24s9.8,22,22,22c11,0,20.1-7.9,21.8-18H44.5z" fill="#4285F4"/>
        <path d="M6.3,14.2l6.4,4.7C14.5,15.9,18.9,13,24,13c3.1,0,5.9,1.1,8.1,2.9l6.4-6.4C34.6,4.5,29.6,2,24,2C16.4,2,9.7,5.6,6.3,14.2z" fill="#EA4335"/>
        <path d="M24,44c5.6,0,10.6-2.1,14.4-5.6l-6.7-5.5c-2.1,1.4-4.7,2.2-7.7,2.2c-5.9,0-10.8-3.9-12.6-9.2l-6.5,5c3.4,8.5,11.7,14.1,21.1,14.1z" fill="#34A853"/>
        <path d="M6.3,33.8l6.5-5c-1.5-2.8-2.3-6-2.3-9.3c0-3.3,0.8-6.5,2.3-9.3l-6.5-5C3.5,11.1,2,17.4,2,24C2,30.6,3.5,36.9,6.3,33.8z" fill="#FBBC05"/>
    </g>
</svg>
